<svg width="21" height="17" viewBox="0 0 21 17" fill="none" xmlns="http://www.w3.org/2000/svg">
<g clip-path="url(#clip0_63_145)">
<path d="M0.905448 3.46535C0.905448 2.60351 0.880197 1.00125 2.94183 1.00122V2.77961L8.61687 8.02237C9.00227 8.3784 9.52081 8.57787 10.0609 8.57787C10.6076 8.57787 11.1318 8.37359 11.5184 8.00995L17.7005 2.19389L19.3256 3.35844L12.4593 10.0715C12.0412 10.4802 11.4641 10.7112 10.8612 10.7112H9.30067C8.69993 10.7112 8.12489 10.482 7.70707 10.0759L0.905448 3.46535Z" fill="#111111"/>
<path d="M2.86733 16.9976C0.508447 17.0161 0.0896378 15.1105 0.0896378 14.094H1.97399C1.97399 15.3191 2.86733 15.2638 3.26047 15.2638H5.14021V16.9976H2.86733Z" fill="#111111"/>
<path d="M17.3094 1.01014C19.6683 0.991589 20.0891 2.98905 20.0891 4.00557H18.2047C18.2047 2.78094 17.3041 2.78094 16.9108 2.78094H16.9103H15.0385V1.01014H17.3094Z" fill="#111111"/>
<path d="M20.089 14.3822C20.1086 16.6014 17.8204 16.9981 16.7398 16.9981V15.2597C18.0421 15.2597 18.2054 14.408 18.2054 14.0124V12.2439H20.089V14.3822Z" fill="#111111"/>
<path d="M1.97409 5.87842H0.089119V14.1165H1.97409V5.87842Z" fill="#111111"/>
<path d="M20.0891 4.00562H18.2041V12.2437H20.0891V4.00562Z" fill="#111111"/>
<path d="M15.0385 2.78336V0.998047L2.93489 0.998047V2.78336L15.0385 2.78336Z" fill="#111111"/>
<path d="M16.7539 16.9978V15.2617H5.14033V16.9978H16.7539Z" fill="#111111"/>
</g>
<defs>
<clipPath id="clip0_63_145">
<rect width="20" height="16" fill="white" transform="translate(0.0891113 0.998047)"/>
</clipPath>
</defs>
</svg>
