<svg width="19" height="16" viewBox="0 0 19 16" fill="none" xmlns="http://www.w3.org/2000/svg">
<path d="M0.85655 2.4673C0.85655 1.60546 0.832785 0.00320304 2.77315 0.00317383V1.78157L8.11436 7.02432C8.47709 7.38035 8.96513 7.57983 9.47349 7.57983C9.98797 7.57983 10.4813 7.37554 10.8452 7.01191L16.6637 1.19584L18.1932 2.3604L11.7308 9.07341C11.3373 9.4822 10.7941 9.71319 10.2267 9.71319H8.75794C8.19254 9.71319 7.65132 9.48393 7.25808 9.07785L0.85655 2.4673Z" fill="#111111"/>
<path d="M2.70304 15.9996C0.482919 16.0181 0.0887451 14.1124 0.0887451 13.0959H1.86225C1.86225 14.3211 2.70304 14.2658 3.07306 14.2658H4.84222V15.9996H2.70304Z" fill="#111111"/>
<path d="M16.2956 0.0120912C18.5157 -0.00645827 18.9118 1.991 18.9118 3.00753H17.1382C17.1382 1.7829 16.2906 1.7829 15.9204 1.7829H15.92H14.1583V0.0120912H16.2956Z" fill="#111111"/>
<path d="M18.9117 13.3841C18.9301 15.6033 16.7765 16.0001 15.7595 16.0001V14.2616C16.9852 14.2616 17.1389 13.4099 17.1389 13.0143V11.2458H18.9117V13.3841Z" fill="#111111"/>
<path d="M1.86232 4.88037H0.0882263V13.1185H1.86232V4.88037Z" fill="#111111"/>
<path d="M18.9117 3.00757H17.1376V11.2457H18.9117V3.00757Z" fill="#111111"/>
<path d="M14.1583 1.78531V0L2.76661 0V1.78531L14.1583 1.78531Z" fill="#111111"/>
<path d="M15.7727 15.9998V14.2637H4.8423V15.9998H15.7727Z" fill="#111111"/>
</svg>
