<svg width="19" height="17" viewBox="0 0 19 17" fill="none" xmlns="http://www.w3.org/2000/svg">
<g clip-path="url(#clip0_63_145)">
<path d="M0.937506 2.99635C0.937506 2.13451 0.913741 0.532256 2.85411 0.532227V2.31062L8.19532 7.55338C8.55804 7.9094 9.04608 8.10888 9.55445 8.10888C10.0689 8.10888 10.5623 7.90459 10.9261 7.54096L16.7446 1.72489L18.2741 2.88945L11.8117 9.60247C11.4182 10.0113 10.8751 10.2422 10.3076 10.2422H8.8389C8.27349 10.2422 7.73227 10.013 7.33903 9.6069L0.937506 2.99635Z" fill="#CCCCCC"/>
<path d="M2.78401 16.5286C0.563889 16.5471 0.169716 14.6415 0.169716 13.625H1.94322C1.94322 14.8501 2.78401 14.7948 3.15403 14.7948H4.92319V16.5286H2.78401Z" fill="#CCCCCC"/>
<path d="M16.3766 0.541144C18.5966 0.522594 18.9927 2.52005 18.9927 3.53658H17.2191C17.2191 2.31195 16.3715 2.31195 16.0013 2.31195H16.0009H14.2392V0.541144H16.3766Z" fill="#CCCCCC"/>
<path d="M18.9926 13.9132C19.0111 16.1324 16.8575 16.5291 15.8405 16.5291V14.7907C17.0661 14.7907 17.2198 13.939 17.2198 13.5434V11.7749H18.9926V13.9132Z" fill="#CCCCCC"/>
<path d="M1.94329 5.40942H0.169197V13.6476H1.94329V5.40942Z" fill="#CCCCCC"/>
<path d="M18.9927 3.53662H17.2186V11.7747H18.9927V3.53662Z" fill="#CCCCCC"/>
<path d="M14.2392 2.31436V0.529053L2.84757 0.529053V2.31436L14.2392 2.31436Z" fill="#CCCCCC"/>
<path d="M15.8537 16.5288V14.7927H4.92328V16.5288H15.8537Z" fill="#CCCCCC"/>
</g>
<defs>
<clipPath id="clip0_63_145">
<rect width="18.8235" height="16" fill="white" transform="translate(0.169189 0.529053)"/>
</clipPath>
</defs>
</svg>
