<svg width="20" height="21" viewBox="0 0 20 21" fill="none" xmlns="http://www.w3.org/2000/svg">
<path d="M1.66229 11.2952V16.8423C1.66225 17.8806 1.66231 19.3315 4.00916 19.3315H16.3836C17.1242 19.3315 18.3749 19.3315 18.3749 16.8423V11.2952" stroke="#111111" strokeWidth="2"/>
<path d="M9.93268 17.386C10.1358 17.386 10.3025 17.3209 10.4327 17.1907C10.5629 17.0657 10.628 16.9016 10.628 16.6985V6.40942L10.5499 4.0813L10.1046 4.23755L12.9092 7.30786L14.6905 9.05786C14.753 9.12036 14.8259 9.16724 14.9092 9.19849C14.9978 9.22974 15.0889 9.24536 15.1827 9.24536C15.3754 9.24536 15.5342 9.18026 15.6592 9.05005C15.7894 8.91984 15.8546 8.75838 15.8546 8.56567C15.8546 8.37817 15.7842 8.2089 15.6436 8.05786L10.4561 2.86255C10.3832 2.78442 10.3025 2.72713 10.2139 2.69067C10.1254 2.64901 10.0316 2.62817 9.93268 2.62817C9.83893 2.62817 9.74778 2.64901 9.65924 2.69067C9.5707 2.72713 9.48737 2.78442 9.40924 2.86255L4.22955 8.05786C4.08372 8.2089 4.0108 8.37817 4.0108 8.56567C4.0108 8.75838 4.0733 8.91984 4.1983 9.05005C4.32851 9.18026 4.48997 9.24536 4.68268 9.24536C4.77643 9.24536 4.86497 9.22974 4.9483 9.19849C5.03684 9.16724 5.11237 9.12036 5.17487 9.05786L6.95612 7.30786L9.75299 4.23755L9.31549 4.0813L9.23737 6.40942V16.6985C9.23737 16.9016 9.30247 17.0657 9.43268 17.1907C9.56289 17.3209 9.72955 17.386 9.93268 17.386Z" fill="#111111"/>
</svg>
